HIERARCHY
ROOT Hips
{
  OFFSET -265.592 97.5709 -253.238
  CHANNELS 6 Xposition Yposition Zposition Zrotation Xrotation Yrotation
  JOINT ToSpine
  {
    OFFSET -0.0105055 1.38907 -7.13956
    CHANNELS 3 Zrotation Xrotation Yrotation
    JOINT Spine
    {
      OFFSET 0.0105055 10 1
      CHANNELS 3 Zrotation Xrotation Yrotation
      JOINT Spine1
      {
        OFFSET 0 12 1.60637
        CHANNELS 3 Zrotation Xrotation Yrotation
        JOINT Neck
        {
          OFFSET 0 27 2.26658
          CHANNELS 3 Zrotation Xrotation Yrotation
          JOINT Head
          {
            OFFSET 0 9 2.12705
            CHANNELS 3 Zrotation Xrotation Yrotation
            End Site
            {
              OFFSET 0 11 2
            }
          }
        }
        JOINT LeftShoulder
        {
          OFFSET 8 19.6109 2.86452
          CHANNELS 3 Zrotation Xrotation Yrotation
          JOINT LeftArm
          {
            OFFSET 12 1 0.681055
            CHANNELS 3 Zrotation Xrotation Yrotation
            JOINT LeftForeArm
            {
              OFFSET 19 0 -1.52608
              CHANNELS 3 Zrotation Xrotation Yrotation
              JOINT LeftHand
              {
                OFFSET 23 0 0
                CHANNELS 3 Zrotation Xrotation Yrotation
                End Site
                {
                  OFFSET 10 0 0
                }
              }
            }
          }
        }
        JOINT RightShoulder
        {
          OFFSET -8 19.6109 2.86452
          CHANNELS 3 Zrotation Xrotation Yrotation
          JOINT RightArm
          {
            OFFSET -12 1 0.681055
            CHANNELS 3 Zrotation Xrotation Yrotation
            JOINT RightForeArm
            {
              OFFSET -19 0 -1.52608
              CHANNELS 3 Zrotation Xrotation Yrotation
              JOINT RightHand
              {
                OFFSET -23 0 0
                CHANNELS 3 Zrotation Xrotation Yrotation
                End Site
                {
                  OFFSET -10 0 0
                }
              }
            }
          }
        }
      }
    }
  }
  JOINT LeftUpLeg
  {
    OFFSET 9 -7.17245 0
    CHANNELS 3 Zrotation Xrotation Yrotation
    JOINT LeftLeg
    {
      OFFSET 0 -44.1113 0
      CHANNELS 3 Zrotation Xrotation Yrotation
      JOINT LeftFoot
      {
        OFFSET 0 -36.1829 0
        CHANNELS 3 Zrotation Xrotation Yrotation
        JOINT LeftToeBase
        {
          OFFSET 0 -4.84184 13
          CHANNELS 3 Zrotation Xrotation Yrotation
          End Site
          {
            OFFSET 0 1 6
          }
        }
      }
    }
  }
  JOINT RightUpLeg
  {
    OFFSET -9 -7.17245 0
    CHANNELS 3 Zrotation Xrotation Yrotation
    JOINT RightLeg
    {
      OFFSET 0 -44.0551 0
      CHANNELS 3 Zrotation Xrotation Yrotation
      JOINT RightFoot
      {
        OFFSET 0 -36.1469 0
        CHANNELS 3 Zrotation Xrotation Yrotation
        JOINT RightToeBase
        {
          OFFSET 0 -4.92256 13
          CHANNELS 3 Zrotation Xrotation Yrotation
          End Site
          {
            OFFSET 0 1 6
          }
        }
      }
    }
  }
}
MOTION
Frames:	10
Frame Time:	0.0333333
-265.53 97.5875 -253.155 -1.25315 -2.06832 -30.8329 0 0 0 5.8239 -3.18834 1.3923 -4.72555 9.77404 1.89674 6.92659 8.32796 10.4203 -4.27834 1.00273 13.9252 -31.741 3.58382 -5.96221 -43.6526 19.0287 -7.76902 -2.8191 -10.1353 -10.7925 -8.43554 0.117205 -1.57194 24.9873 5.47506 13.9278 51.4319 8.03318 0.636658 3.79484 -10.0647 13.3734 4.76694 0.234411 5.6296 2.29335 3.68947 7.59965 -1.17857 11.283 -10.071 13.453 -6.55869 0.774585 1.81122 -16.5663 -7.20608 -1.73949 3.41527 -7.09041 1.08389 8.55335 1.86106 -16.6542 -3.65523 -0.535021 3.51704 -12.9386 -4.68615 
-265.628 97.5227 -253.124 -1.08442 -1.77419 -30.8554 0 0 0 5.13577 -3.3504 1.42205 -3.72734 9.82224 1.68805 6.46704 7.92212 10.6794 -4.12682 1.18987 13.9505 -32.269 3.59447 -5.86094 -43.1344 19.2677 -8.16222 -2.66084 -9.72563 -11.6144 -8.09665 0.0859683 -1.21899 24.762 5.43968 13.936 51.2358 8.07435 1.07679 3.53229 -9.22697 13.3195 4.39657 0.206283 5.36135 2.58154 2.80001 7.85576 -1.46475 12.6488 -10.2176 13.7519 -7.37312 0.89072 1.81374 -16.5671 -7.2325 -1.74691 2.80162 -6.99475 1.08754 9.1909 1.68397 -16.435 -3.97311 -0.574437 3.59122 -13.2629 -4.61571 
-265.615 97.4778 -252.785 -0.878716 -1.65604 -31.0474 0 0 0 5.1271 -3.61261 1.39541 -3.59793 10.1971 1.63603 6.39879 7.34879 10.8147 -4.24303 1.66297 14.0461 -32.427 3.56212 -5.73819 -42.6925 19.6808 -8.56745 -2.5997 -10.0468 -12.6287 -8.28572 0.0608673 -0.840715 24.4781 5.35371 13.8124 51.2433 8.54893 1.58922 3.54545 -9.14175 13.6985 4.07286 0.181998 5.12683 2.2743 2.19493 7.55402 -1.31647 13.9991 -9.51123 13.6187 -8.32348 0.993786 1.80103 -16.6403 -7.09138 -2.18389 2.18168 -7.16896 1.0787 10.4883 2.26353 -15.9861 -4.31632 -0.608747 3.74819 -13.9456 -4.92647 
-265.444 97.4039 -252.488 -0.8842 -1.54221 -30.6903 0 0 0 5.5255 -3.22634 1.10316 -3.634 9.99002 1.39684 6.47338 7.13153 10.7139 -4.34396 1.39282 13.9743 -32.0795 3.54014 -5.76544 -42.9758 19.6947 -8.66905 -2.18098 -9.01351 -13.4798 -8.33763 0.0539968 -0.738755 24.4151 5.34196 13.8148 51.1825 8.50065 1.57195 3.28263 -8.48005 14.45 3.77825 0.150683 4.53844 2.09921 1.1162 7.04639 -1.16794 16.2817 -8.92801 14.3474 -9.22107 1.16775 1.76513 -17.6956 -6.61297 -2.47349 1.63659 -7.46716 0.981742 11.9778 2.37218 -14.3545 -5.60013 -0.699799 3.4728 -12.7266 -4.68687 
-265.055 97.1738 -252.224 -0.745932 -1.0934 -29.9683 0 0 0 5.12074 -3.35489 1.06097 -1.9442 10.3715 1.02177 6.16399 6.0692 10.5003 -4.57858 1.65541 13.6319 -32.0171 3.68549 -6.15829 -43.3872 20.0667 -9.7424 -2.16889 -8.87581 -13.7006 -8.06715 0.0798064 -1.13442 23.4271 4.98277 13.1404 51.5707 8.35203 1.87491 3.27537 -8.78965 15.2971 3.30519 0.116324 4.02416 2.15794 -1.29455 6.97832 -1.13961 20.478 -9.27342 14.2837 -11.3128 1.41052 1.75064 -17.3654 -6.49217 -3.07614 0.399663 -8.42655 1.30267 14.1329 2.45417 -12.7881 -7.42645 -0.835143 3.16723 -11.4571 -4.30813 
-264.416 96.8228 -252.114 -0.907339 -0.417537 -29.9989 0 0 0 5.671 -2.08619 1.19711 -0.847542 9.42298 0.972247 5.61398 5.04806 10.4625 -4.82416 1.77171 13.3863 -32.8284 3.82308 -6.31296 -42.6991 21.0601 -10.5471 -2.08263 -8.59888 -14.354 -7.45982 0.076146 -1.16572 22.3058 4.65602 12.6605 51.6723 8.05707 1.90511 3.2181 -8.85407 16.2652 3.15528 0.111357 4.22952 2.8479 -4.6993 10.1359 -0.673536 26.4808 -11.5805 15.1469 -12.6511 1.68784 1.78835 -17.6899 -6.83714 -3.45986 -1.59045 -9.1734 1.42465 17.1127 3.20723 -11.8727 -8.65838 -0.901539 3.20992 -11.6443 -4.2403 
-263.665 96.3953 -252.03 -1.32383 0.252823 -30.2434 0 0 0 7.2878 0.465746 0.920901 -1.20545 7.14983 0.85061 5.47892 4.62454 10.5867 -5.16004 1.20912 13.5 -33.4227 3.8115 -6.1329 -42.336 21.0478 -9.89259 -1.13577 -6.01423 -15.8253 -7.4103 0.0868579 -1.3373 22.1881 4.74523 13.0238 50.9023 7.65126 1.31944 2.84174 -7.94741 17.5877 3.41655 0.110396 4.18239 4.05895 -8.31856 14.4333 0.0222453 32.9999 -12.1314 17.6146 -11.9267 1.85479 1.76019 -20.1673 -6.1342 -3.6602 -3.71515 -10.6176 1.17108 20.4675 5.1452 -11.3911 -9.45652 -0.946092 3.38667 -12.3905 -4.30237 
-262.839 95.8645 -251.845 -1.1255 0.892238 -30.6713 0 0 0 7.5268 2.31256 0.755539 -0.640975 5.72267 0.631223 5.49849 3.20454 10.8335 -5.55533 1.56655 13.7489 -33.4891 3.82983 -6.16249 -42.5122 20.9863 -9.33558 -0.289502 -3.85997 -17.3593 -7.38354 0.0861317 -1.32622 21.7277 4.57361 12.6727 50.1566 7.88187 1.6532 3.18777 -8.85253 18.7619 3.33392 0.111824 4.18128 5.08183 -12.3529 18.0338 0.023157 39.8192 -9.39162 17.7438 -12.7745 2.00037 1.73138 -20.2801 -5.57537 -4.90242 -6.35433 -14.3356 0.534315 24.4778 9.31518 -11.2151 -10.9157 -1.0717 3.44684 -12.6628 -4.19292 
-261.832 95.0895 -251.549 -0.279579 0.784399 -31.3093 0 0 0 7.02083 4.93703 0.14232 -0.639004 3.94852 0.147418 5.82773 1.2756 11.5108 -5.71738 2.7145 14.4309 -32.4909 3.79329 -6.32185 -43.8454 20.4448 -8.03158 0.240447 -1.94591 -19.4056 -6.36542 0.0713895 -1.30712 21.6858 4.55046 12.6159 49.0074 7.12233 2.02254 2.8581 -7.78293 20.1211 3.11448 0.112899 4.19663 5.72111 -16.1346 21.3155 0.00272658 46.5983 -6.85188 15.7623 -14.2299 1.9813 1.63857 -19.4218 -4.49496 -7.46616 -9.13345 -16.8246 -0.072801 29.5899 12.4062 -12.0307 -12.9809 -1.37589 3.63555 -13.4289 -4.66889 
-260.76 94.1787 -251.181 0.569374 0.477738 -31.5003 0 0 0 6.16551 7.13278 -0.714507 -0.10193 3.06285 -0.725174 5.91771 -0.437984 12.3101 -6.61268 3.1745 15.3356 -31.8972 3.80069 -6.48929 -44.4237 20.6998 -7.63561 0.846787 -0.0786417 -20.4248 -5.57794 0.0495334 -0.998893 21.7255 4.54512 12.5751 47.8077 4.66368 2.37821 1.95401 -5.06973 22.1042 3.20755 0.11356 4.03666 7.25203 -19.6665 23.9044 0.0028871 52.9249 -4.60503 13.4993 -15.2884 1.81789 1.52047 -17.745 -3.79882 -10.0872 -11.5595 -17.9459 -0.0101761 34.5434 13.2428 -14.546 -14.303 -1.8351 4.0926 -15.4771 -5.27109 
